<svg width="1000" height="1000" viewBox="0 0 1000 1000" fill="none" xmlns="http://www.w3.org/2000/svg">
<path d="M748.692 156.693L618.63 286.965H443.602L351.151 379.416L256.809 285.074L386.24 155.642L748.692 156.693Z" fill="url(#paint0_linear_4_19)"/>
<path d="M748.692 156.693L618.63 286.965H443.602L351.151 379.416L256.809 285.074L386.24 155.642L748.692 156.693Z" fill="url(#paint1_linear_4_19)"/>
<path d="M580.777 328.794L500.933 408.638H383.268L461.431 330.475L580.777 328.794Z" fill="url(#paint2_linear_4_19)"/>
<path d="M580.777 328.794L500.933 408.638H383.268L461.431 330.475L580.777 328.794Z" fill="url(#paint3_linear_4_19)"/>
<path d="M580.777 328.794L500.933 408.638H383.268L461.431 330.475L580.777 328.794Z" fill="url(#paint4_linear_4_19)"/>
<path d="M710.871 485.751L585.221 611.191H382.038L256.809 486.171V328.794L414.186 486.171L710.871 485.751Z" fill="url(#paint5_linear_4_19)"/>
<path d="M257.588 737.121C257.588 740.337 257.38 743.243 256.965 745.837H191.44C191.959 752.685 194.501 758.185 199.066 762.335C203.633 766.484 209.236 768.56 215.876 768.56C225.422 768.56 232.166 764.566 236.109 756.576H255.253C252.66 764.461 247.938 770.948 241.09 776.031C234.345 781.012 225.94 783.502 215.876 783.502C207.679 783.502 200.312 781.687 193.775 778.055C187.341 774.319 182.257 769.13 178.522 762.49C174.89 755.745 173.074 747.963 173.074 739.144C173.074 730.325 174.838 722.593 178.366 715.953C181.998 709.208 187.03 704.021 193.463 700.389C200 696.757 207.471 694.942 215.876 694.942C223.969 694.942 231.181 696.706 237.51 700.234C243.839 703.761 248.769 708.741 252.296 715.175C255.823 721.504 257.588 728.819 257.588 737.121ZM239.066 731.518C238.963 724.981 236.629 719.741 232.063 715.798C227.496 711.854 221.843 709.883 215.098 709.883C208.975 709.883 203.736 711.854 199.378 715.798C195.02 719.636 192.426 724.877 191.596 731.518H239.066ZM284.076 684.981C280.86 684.981 278.162 683.891 275.983 681.712C273.804 679.533 272.714 676.835 272.714 673.619C272.714 670.403 273.804 667.704 275.983 665.525C278.162 663.346 280.86 662.257 284.076 662.257C287.189 662.257 289.835 663.346 292.014 665.525C294.193 667.704 295.282 670.403 295.282 673.619C295.282 676.835 294.193 679.533 292.014 681.712C289.835 683.891 287.189 684.981 284.076 684.981ZM292.792 696.342V782.101H275.049V696.342H292.792ZM350.64 694.942C357.28 694.942 363.142 696.29 368.228 698.988C373.415 701.582 377.461 704.85 380.368 708.794V696.342H398.267V783.502C398.267 791.387 396.605 798.391 393.286 804.514C389.965 810.739 385.14 815.617 378.812 819.144C372.586 822.671 365.115 824.436 356.399 824.436C344.777 824.436 335.127 821.687 327.45 816.187C319.771 810.792 315.413 803.424 314.376 794.086H331.963C333.312 798.547 336.166 802.126 340.524 804.825C344.985 807.626 350.277 809.027 356.399 809.027C363.559 809.027 369.317 806.848 373.675 802.49C378.136 798.132 380.368 791.804 380.368 783.502V769.183C377.358 773.23 373.259 776.654 368.072 779.455C362.987 782.154 357.177 783.502 350.64 783.502C343.17 783.502 336.321 781.634 330.096 777.899C323.973 774.06 319.096 768.769 315.465 762.023C311.936 755.175 310.173 747.446 310.173 738.833C310.173 730.22 311.936 722.593 315.465 715.953C319.096 709.313 323.973 704.177 330.096 700.545C336.321 696.809 343.17 694.942 350.64 694.942ZM380.368 739.144C380.368 733.23 379.123 728.093 376.633 723.735C374.245 719.377 371.08 716.056 367.138 713.774C363.195 711.492 358.94 710.35 354.376 710.35C349.81 710.35 345.555 711.492 341.613 713.774C337.67 715.953 334.454 719.222 331.963 723.58C329.576 727.835 328.384 732.918 328.384 738.833C328.384 744.747 329.576 749.936 331.963 754.397C334.454 758.858 337.67 762.282 341.613 764.669C345.66 766.951 349.913 768.093 354.376 768.093C358.94 768.093 363.195 766.951 367.138 764.669C371.08 762.387 374.245 759.066 376.633 754.708C379.123 750.247 380.368 745.058 380.368 739.144ZM500.172 737.121C500.172 740.337 499.963 743.243 499.549 745.837H434.024C434.541 752.685 437.084 758.185 441.65 762.335C446.214 766.484 451.817 768.56 458.459 768.56C468.004 768.56 474.749 764.566 478.693 756.576H497.835C495.242 764.461 490.522 770.948 483.673 776.031C476.928 781.012 468.524 783.502 458.459 783.502C450.261 783.502 442.895 781.687 436.358 778.055C429.924 774.319 424.841 769.13 421.105 762.49C417.473 755.745 415.658 747.963 415.658 739.144C415.658 730.325 417.421 722.593 420.95 715.953C424.58 709.208 429.613 704.021 436.047 700.389C442.584 696.757 450.055 694.942 458.459 694.942C466.553 694.942 473.763 696.706 480.094 700.234C486.422 703.761 491.35 708.741 494.88 715.175C498.407 721.504 500.172 728.819 500.172 737.121ZM481.65 731.518C481.545 724.981 479.21 719.741 474.646 715.798C470.08 711.854 464.424 709.883 457.681 709.883C451.559 709.883 446.319 711.854 441.961 715.798C437.603 719.636 435.008 724.877 434.179 731.518H481.65ZM560.901 694.942C567.644 694.942 573.664 696.342 578.956 699.144C584.351 701.946 588.553 706.095 591.563 711.595C594.57 717.095 596.076 723.735 596.076 731.518V782.101H578.489V734.163C578.489 726.484 576.568 720.623 572.73 716.576C568.889 712.426 563.65 710.35 557.01 710.35C550.368 710.35 545.076 712.426 541.135 716.576C537.294 720.623 535.376 726.484 535.376 734.163V782.101H517.633V696.342H535.376V706.148C538.28 702.621 541.963 699.87 546.426 697.899C550.991 695.928 555.815 694.942 560.901 694.942Z" fill="#FF7744"/>
<path d="M649.837 783.502C643.092 783.502 637.022 782.309 631.627 779.922C626.335 777.432 622.132 774.111 619.02 769.961C615.907 765.706 614.245 760.986 614.039 755.797H632.405C632.716 759.43 634.428 762.49 637.541 764.98C640.757 767.367 644.751 768.56 649.525 768.56C654.506 768.56 658.345 767.626 661.043 765.759C663.845 763.788 665.245 761.297 665.245 758.288C665.245 755.072 663.689 752.685 660.576 751.128C657.566 749.572 652.741 747.86 646.101 745.992C639.667 744.227 634.428 742.515 630.381 740.856C626.335 739.196 622.806 736.653 619.798 733.229C616.891 729.805 615.44 725.292 615.44 719.688C615.44 715.122 616.788 710.972 619.487 707.237C622.183 703.399 626.024 700.389 631.004 698.21C636.088 696.031 641.899 694.941 648.436 694.941C658.189 694.941 666.024 697.432 671.938 702.412C677.955 707.29 681.171 713.982 681.588 722.49H663.845C663.533 718.651 661.977 715.589 659.175 713.307C656.374 711.025 652.586 709.883 647.813 709.883C643.144 709.883 639.564 710.764 637.074 712.529C634.584 714.293 633.339 716.628 633.339 719.533C633.339 721.815 634.167 723.735 635.829 725.292C637.489 726.848 639.512 728.093 641.899 729.027C644.284 729.858 647.813 730.947 652.483 732.295C658.708 733.955 663.792 735.667 667.736 737.432C671.782 739.091 675.257 741.581 678.164 744.902C681.068 748.223 682.572 752.632 682.677 758.132C682.677 763.009 681.327 767.367 678.631 771.206C675.932 775.044 672.094 778.054 667.113 780.233C662.236 782.412 656.477 783.502 649.837 783.502ZM739.047 783.502C730.953 783.502 723.638 781.687 717.101 778.054C710.564 774.319 705.428 769.13 701.693 762.49C697.957 755.745 696.09 747.963 696.09 739.144C696.09 730.428 698.01 722.698 701.848 715.953C705.687 709.208 710.928 704.021 717.568 700.389C724.208 696.757 731.629 694.941 739.825 694.941C748.022 694.941 755.442 696.757 762.082 700.389C768.722 704.021 773.963 709.208 777.802 715.953C781.64 722.698 783.56 730.428 783.56 739.144C783.56 747.86 781.59 755.589 777.646 762.334C773.702 769.079 768.308 774.319 761.459 778.054C754.714 781.687 747.243 783.502 739.047 783.502ZM739.047 768.093C743.613 768.093 747.866 767.004 751.809 764.825C755.856 762.646 759.125 759.377 761.615 755.019C764.105 750.661 765.35 745.369 765.35 739.144C765.35 732.918 764.158 727.679 761.771 723.424C759.383 719.066 756.22 715.797 752.276 713.618C748.333 711.439 744.08 710.35 739.514 710.35C734.948 710.35 730.695 711.439 726.751 713.618C722.913 715.797 719.85 719.066 717.568 723.424C715.286 727.679 714.144 732.918 714.144 739.144C714.144 748.379 716.479 755.539 721.148 760.622C725.92 765.603 731.887 768.093 739.047 768.093ZM818.844 666.926V782.101H801.101V666.926H818.844Z" fill="#7AB2CF"/>
<defs>
<linearGradient id="paint0_linear_4_19" x1="256.838" y1="267.521" x2="748.77" y2="267.521" gradientUnits="userSpaceOnUse">
<stop stop-color="#3C3F58"/>
<stop offset="1" stop-color="#75FF8F"/>
</linearGradient>
<linearGradient id="paint1_linear_4_19" x1="135.213" y1="268.483" x2="748.77" y2="267.521" gradientUnits="userSpaceOnUse">
<stop stop-color="#6C6F7E"/>
<stop offset="1" stop-color="#56CCF2"/>
</linearGradient>
<linearGradient id="paint2_linear_4_19" x1="307.392" y1="365.759" x2="600.194" y2="369.65" gradientUnits="userSpaceOnUse">
<stop offset="0.1911" stop-color="#FF7F50"/>
<stop offset="1" stop-color="#FFB88C"/>
</linearGradient>
<linearGradient id="paint3_linear_4_19" x1="307.392" y1="365.759" x2="600.194" y2="369.65" gradientUnits="userSpaceOnUse">
<stop offset="0.1911" stop-color="#B24592"/>
<stop offset="1" stop-color="#F15F79"/>
</linearGradient>
<linearGradient id="paint4_linear_4_19" x1="307.392" y1="365.759" x2="600.194" y2="369.65" gradientUnits="userSpaceOnUse">
<stop offset="0.1911" stop-color="#FFB347"/>
<stop offset="1" stop-color="#FF6F61"/>
</linearGradient>
<linearGradient id="paint5_linear_4_19" x1="144.933" y1="470.872" x2="710.811" y2="470.031" gradientUnits="userSpaceOnUse">
<stop stop-color="#6C6F7E"/>
<stop offset="0.9944" stop-color="#56CCF2"/>
</linearGradient>
</defs>
</svg>
