<svg width="940" height="266" viewBox="0 0 940 266" fill="none" xmlns="http://www.w3.org/2000/svg">
<path d="M230 48.3897L181.612 96.7089H116.495L82.0991 131L47 96.0075L95.1538 48L230 48.3897Z" fill="url(#paint0_linear_5_2)"/>
<path d="M167 112L137.489 142H94L122.889 112.632L167 112Z" fill="url(#paint1_linear_5_2)"/>
<path d="M216 170.359L169.234 217H93.6099L47 170.516V112L105.575 170.516L216 170.359Z" fill="url(#paint2_linear_5_2)"/>
<path d="M332.514 126.864C332.514 130.08 332.305 132.986 331.891 135.58H266.366C266.885 142.428 269.427 147.928 273.992 152.078C278.558 156.228 284.161 158.304 290.802 158.304C300.348 158.304 307.091 154.309 311.035 146.319H330.179C327.586 154.204 322.864 160.691 316.016 165.774C309.27 170.755 300.866 173.245 290.802 173.245C282.605 173.245 275.237 171.43 268.7 167.798C262.267 164.062 257.183 158.874 253.447 152.234C249.816 145.488 248 137.706 248 128.887C248 120.068 249.764 112.337 253.292 105.697C256.924 98.9514 261.956 93.7646 268.389 90.1323C274.926 86.5 282.397 84.6849 290.802 84.6849C298.895 84.6849 306.107 86.4495 312.436 89.9767C318.765 93.5039 323.695 98.4845 327.222 104.918C330.749 111.247 332.514 118.562 332.514 126.864ZM313.992 121.261C313.889 114.724 311.554 109.484 306.988 105.541C302.422 101.597 296.768 99.6265 290.023 99.6265C283.901 99.6265 278.661 101.597 274.304 105.541C269.946 109.379 267.352 114.621 266.521 121.261H313.992ZM359.002 74.7237C355.786 74.7237 353.088 73.6342 350.909 71.4553C348.73 69.2763 347.64 66.5778 347.64 63.3619C347.64 60.1459 348.73 57.4475 350.909 55.2685C353.088 53.0895 355.786 52 359.002 52C362.115 52 364.761 53.0895 366.94 55.2685C369.119 57.4475 370.208 60.1459 370.208 63.3619C370.208 66.5778 369.119 69.2763 366.94 71.4553C364.761 73.6342 362.115 74.7237 359.002 74.7237ZM367.718 86.0856V171.844H349.975V86.0856H367.718ZM425.566 84.6849C432.206 84.6849 438.068 86.0331 443.154 88.7315C448.34 91.3249 452.387 94.5934 455.294 98.537V86.0856H473.193V173.245C473.193 181.13 471.531 188.134 468.212 194.257C464.891 200.482 460.066 205.36 453.737 208.887C447.512 212.414 440.041 214.179 431.325 214.179C419.702 214.179 410.053 211.43 402.375 205.93C394.697 200.535 390.339 193.167 389.302 183.829H406.889C408.237 188.29 411.091 191.87 415.449 194.568C419.911 197.37 425.202 198.77 431.325 198.77C438.484 198.77 444.243 196.591 448.601 192.233C453.062 187.876 455.294 181.547 455.294 173.245V158.926C452.284 162.973 448.185 166.397 442.998 169.198C437.912 171.897 432.103 173.245 425.566 173.245C418.095 173.245 411.247 171.377 405.021 167.642C398.899 163.804 394.021 158.512 390.391 151.767C386.862 144.918 385.099 137.189 385.099 128.576C385.099 119.963 386.862 112.337 390.391 105.697C394.021 99.0564 398.899 93.9202 405.021 90.2879C411.247 86.5525 418.095 84.6849 425.566 84.6849ZM455.294 128.887C455.294 122.973 454.049 117.837 451.558 113.479C449.171 109.121 446.006 105.8 442.064 103.518C438.121 101.235 433.866 100.093 429.302 100.093C424.735 100.093 420.481 101.235 416.539 103.518C412.595 105.697 409.379 108.965 406.889 113.323C404.502 117.578 403.309 122.662 403.309 128.576C403.309 134.49 404.502 139.679 406.889 144.14C409.379 148.601 412.595 152.025 416.539 154.412C420.586 156.695 424.839 157.837 429.302 157.837C433.866 157.837 438.121 156.695 442.064 154.412C446.006 152.13 449.171 148.809 451.558 144.451C454.049 139.99 455.294 134.802 455.294 128.887ZM575.097 126.864C575.097 130.08 574.889 132.986 574.475 135.58H508.949C509.467 142.428 512.01 147.928 516.576 152.078C521.14 156.228 526.743 158.304 533.385 158.304C542.93 158.304 549.675 154.309 553.619 146.319H572.761C570.167 154.204 565.447 160.691 558.599 165.774C551.854 170.755 543.449 173.245 533.385 173.245C525.187 173.245 517.821 171.43 511.284 167.798C504.85 164.062 499.767 158.874 496.031 152.234C492.399 145.488 490.584 137.706 490.584 128.887C490.584 120.068 492.346 112.337 495.875 105.697C499.506 98.9514 504.539 93.7646 510.973 90.1323C517.51 86.5 524.981 84.6849 533.385 84.6849C541.479 84.6849 548.689 86.4495 555.019 89.9767C561.348 93.5039 566.276 98.4845 569.805 104.918C573.333 111.247 575.097 118.562 575.097 126.864ZM556.576 121.261C556.471 114.724 554.136 109.484 549.572 105.541C545.006 101.597 539.35 99.6265 532.607 99.6265C526.484 99.6265 521.245 101.597 516.887 105.541C512.529 109.379 509.934 114.621 509.105 121.261H556.576ZM635.827 84.6849C642.57 84.6849 648.59 86.0856 653.881 88.8871C659.276 91.6887 663.479 95.8386 666.488 101.339C669.496 106.839 671.002 113.479 671.002 121.261V171.844H653.414V123.907C653.414 116.228 651.494 110.366 647.656 106.319C643.815 102.169 638.576 100.093 631.936 100.093C625.294 100.093 620.002 102.169 616.06 106.319C612.22 110.366 610.302 116.228 610.302 123.907V171.844H592.558V86.0856H610.302V95.891C613.206 92.3638 616.889 89.6129 621.352 87.642C625.916 85.6712 630.741 84.6849 635.827 84.6849Z" fill="#FF7744"/>
<path d="M724.762 173.245C718.017 173.245 711.947 172.052 706.552 169.665C701.261 167.175 697.058 163.854 693.945 159.704C690.833 155.449 689.171 150.729 688.965 145.541H707.331C707.642 149.173 709.354 152.233 712.467 154.723C715.683 157.111 719.677 158.303 724.451 158.303C729.432 158.303 733.27 157.369 735.969 155.502C738.77 153.531 740.171 151.041 740.171 148.031C740.171 144.815 738.615 142.428 735.502 140.871C732.492 139.315 727.667 137.603 721.027 135.735C714.593 133.971 709.354 132.258 705.307 130.599C701.261 128.939 697.731 126.397 694.724 122.972C691.817 119.548 690.366 115.035 690.366 109.432C690.366 104.865 691.714 100.716 694.412 96.9802C697.109 93.1417 700.949 90.132 705.93 87.953C711.013 85.774 716.825 84.6846 723.362 84.6846C733.115 84.6846 740.949 87.1748 746.864 92.1554C752.881 97.0328 756.097 103.725 756.513 112.233H738.77C738.459 108.395 736.903 105.332 734.101 103.05C731.299 100.768 727.512 99.6262 722.739 99.6262C718.07 99.6262 714.49 100.507 712 102.272C709.51 104.037 708.264 106.371 708.264 109.276C708.264 111.558 709.093 113.478 710.755 115.035C712.414 116.591 714.438 117.836 716.825 118.77C719.21 119.601 722.739 120.69 727.408 122.039C733.634 123.698 738.718 125.41 742.661 127.175C746.708 128.834 750.183 131.325 753.089 134.646C755.994 137.967 757.498 142.375 757.603 147.875C757.603 152.753 756.253 157.111 753.556 160.949C750.858 164.788 747.019 167.797 742.039 169.976C737.161 172.155 731.403 173.245 724.762 173.245ZM813.973 173.245C805.879 173.245 798.564 171.43 792.027 167.797C785.49 164.062 780.354 158.873 776.619 152.233C772.883 145.488 771.015 137.706 771.015 128.887C771.015 120.171 772.936 112.441 776.774 105.696C780.613 98.9511 785.854 93.7643 792.494 90.132C799.134 86.4997 806.554 84.6846 814.751 84.6846C822.947 84.6846 830.368 86.4997 837.008 90.132C843.648 93.7643 848.889 98.9511 852.728 105.696C856.566 112.441 858.486 120.171 858.486 128.887C858.486 137.603 856.515 145.332 852.572 152.078C848.628 158.823 843.233 164.062 836.385 167.797C829.64 171.43 822.169 173.245 813.973 173.245ZM813.973 157.836C818.539 157.836 822.792 156.747 826.735 154.568C830.782 152.389 834.05 149.12 836.541 144.762C839.031 140.404 840.276 135.113 840.276 128.887C840.276 122.661 839.084 117.422 836.696 113.167C834.309 108.809 831.146 105.541 827.202 103.362C823.259 101.183 819.006 100.093 814.44 100.093C809.873 100.093 805.62 101.183 801.677 103.362C797.838 105.541 794.776 108.809 792.494 113.167C790.212 117.422 789.07 122.661 789.07 128.887C789.07 138.122 791.405 145.282 796.074 150.365C800.846 155.346 806.813 157.836 813.973 157.836ZM893.77 56.6689V171.844H876.027V56.6689H893.77Z" fill="#7AB2CF"/>
<defs>
<linearGradient id="paint0_linear_5_2" x1="1.76174" y1="89.8536" x2="230.029" y2="89.4949" gradientUnits="userSpaceOnUse">
<stop stop-color="#6C6F7E"/>
<stop offset="1" stop-color="#56CCF2"/>
</linearGradient>
<linearGradient id="paint1_linear_5_2" x1="65.9563" y1="125.889" x2="174.177" y2="127.304" gradientUnits="userSpaceOnUse">
<stop offset="0.1911" stop-color="#FFB347"/>
<stop offset="1" stop-color="#FF6F61"/>
</linearGradient>
<linearGradient id="paint2_linear_5_2" x1="5.36043" y1="164.827" x2="215.978" y2="164.514" gradientUnits="userSpaceOnUse">
<stop stop-color="#6C6F7E"/>
<stop offset="0.9944" stop-color="#56CCF2"/>
</linearGradient>
</defs>
</svg>
